<svg width="1024" height="1024" viewBox="0 0 1024 1024" fill="none" xmlns="http://www.w3.org/2000/svg">
  <rect x="144" y="144" width="736" height="736" rx="164" fill="#0B0804"></rect>
  <rect x="146" y="146" width="732" height="732" rx="162" stroke="#8A6225" stroke-width="4"></rect>

  <path d="M330 455V365L445 309H508" stroke="#DCA52E" stroke-width="32" stroke-linecap="round" stroke-linejoin="round"></path>
  <path d="M572 309H690" stroke="#DCA52E" stroke-width="32" stroke-linecap="round"></path>
  <rect x="445" y="250" width="127" height="118" rx="24" fill="#DCA52E"></rect>
  <circle cx="724" cy="309" r="50" fill="#DCA52E"></circle>

  <path d="M330 551V641L445 697H508" stroke="#806342" stroke-width="32" stroke-linecap="round" stroke-linejoin="round"></path>
  <path d="M572 697H690" stroke="#806342" stroke-width="32" stroke-linecap="round"></path>
  <rect x="445" y="638" width="127" height="118" rx="24" fill="#806342"></rect>
  <circle cx="724" cy="697" r="50" fill="#806342"></circle>

  <rect x="460" y="482" width="42" height="42" rx="10" fill="#59442A"></rect>
  <rect x="534" y="482" width="42" height="42" rx="10" fill="#B9822B"></rect>
  <rect x="608" y="482" width="42" height="42" rx="10" fill="#F2D29A"></rect>
</svg>
